# xmcd
#
# Track frame offsets:
#	150
#	12246
#	23467
#	34850
#	44064
#	56344
#	76616
#	89539
#	101608
#	112137
#	125544
#	139770
#	152452
#	164775
#	176411
#	186738
#	196761
#	208275
#	218379
#	230307
#	243057
#	252637
#	264322
#	276018
#	287074
#
# Disc length: 4028 seconds
#
# Revision: 1
# Processed by: cddbd v1.5.2PL0 Copyright (c) Steve Scherf et al.
# Submitted via: audiograbber 1.83.01
#
DISCID=5f0fba19
DTITLE=Verschiedene - 75 Goldene Country Hits CD 2
DYEAR=1900
DGENRE=Country
TTITLE0=Bill Monroe - Footprints In The Snow
TTITLE1=Hank Snow - Let Me Go Lover
TTITLE2=Johnny Horton - Words
TTITLE3=Curtis Gordon - Baby, Baby Me
TTITLE4=Bob Wills and The Mckinney Sisters - Rose Of Old Pawnee
TTITLE5=Kitty Wells and Hank Thompson - It Wasn't God Who Made Honky Tonk Angels
TTITLE6=Jim Reeves - Butterfly Love
TTITLE7=Carl Smith - There She Goes
TTITLE8=Eddie Marshall - Moblin' Baby Of Mine
TTITLE9=Eddy Arnold - How's The World Reating You
TTITLE10=Ernest Tubb - Hobo's Meditation
TTITLE11=Hank Penny - Taxes Taxes Taxes
TTITLE12=Tex Williams - Smoke, Smoke, Smoke That Cigarette
TTITLE13=Ferlin Huskey - I Feel Better All Over More Than Anywhere's Else
TTITLE14=Georg Jones - Why, Baby, Why
TTITLE15=Hank Snow - Southern Cannonball
TTITLE16=Jim Reeves - Teardrops Og Regret
TTITLE17=Johnny Cash - Hey Porter
TTITLE18=Lester Flett and Earl Scruggs - Come Back Darling
TTITLE19=Red Foley - Chattanooga Shoe Shine Boy
TTITLE20=Carl Smith - Go Boy Go
TTITLE21=Red Foley and Kitty Wells - As Long As Live
TTITLE22=Tennessee Ernie Ford - Sixteen Tons
TTITLE23=Hank Snow - These Things Shall Pass
TTITLE24=The Weavers and Gordon Jenkins - Goodnight Irene
EXTD=
EXTT0=
EXTT1=
EXTT2=
EXTT3=
EXTT4=
EXTT5=
EXTT6=
EXTT7=
EXTT8=
EXTT9=
EXTT10=
EXTT11=
EXTT12=
EXTT13=
EXTT14=
EXTT15=
EXTT16=
EXTT17=
EXTT18=
EXTT19=
EXTT20=
EXTT21=
EXTT22=
EXTT23=
EXTT24=
PLAYORDER=
